<?xml version="1.0" standalone="no"?>
<!DOCTYPE svg PUBLIC "-//W3C//DTD SVG 20010904//EN"
 "http://www.w3.org/TR/2001/REC-SVG-20010904/DTD/svg10.dtd">
<svg version="1.0" xmlns="http://www.w3.org/2000/svg"
 width="500.000000pt" height="500.000000pt" viewBox="0 0 500.000000 500.000000"
 preserveAspectRatio="xMidYMid meet">
<metadata>
Created by potrace 1.11, written by Peter Selinger 2001-2013
</metadata>
<g transform="translate(0.000000,500.000000) scale(0.100000,-0.100000)"
fill="#000000" stroke="none">
<path d="M0 2500 l0 -2500 2500 0 2500 0 0 1653 0 1652 -854 848 -854 847
-1646 0 -1646 0 0 -2500z m891 2298 c35 -78 33 -182 -4 -263 -29 -61 -81 -125
-103 -125 -39 0 -49 181 -15 283 22 64 75 157 91 157 4 0 18 -24 31 -52z
m-227 -417 c50 -20 16 -36 -72 -35 -89 1 -173 29 -137 45 26 12 171 4 209 -10z
m671 -14 c66 -31 145 -101 145 -129 0 -22 -70 -69 -150 -100 -76 -30 -200 -30
-293 1 -37 13 -69 27 -72 32 -4 5 -11 9 -16 9 -6 0 -2 -15 9 -32 11 -18 30
-61 41 -95 34 -100 25 -303 -13 -303 -22 0 -96 88 -124 148 -37 78 -38 211 -4
286 18 40 20 52 10 64 -11 13 -10 15 5 9 13 -5 26 2 43 23 35 41 76 69 143 97
79 33 191 29 276 -10z m673 -1567 c3 -352 -4 -428 -44 -497 -36 -62 -81 -86
-176 -91 -124 -7 -200 35 -257 143 -26 49 -26 65 -3 65 12 0 25 -14 37 -40 25
-55 94 -117 139 -126 61 -11 153 0 184 22 15 11 38 42 52 70 l25 49 3 368 c3
340 4 368 20 365 15 -3 17 -32 20 -328z m788 -562 c5 -17 -7 -18 -235 -18
-234 0 -241 1 -241 20 0 19 7 20 210 20 116 0 210 3 210 8 0 4 -58 145 -130
312 l-129 305 -15 -35 c-252 -595 -265 -625 -287 -628 -15 -3 -20 0 -17 10 15
36 311 734 315 741 4 7 299 -673 319 -735z m239 402 c76 -181 140 -328 142
-326 1 1 61 139 132 307 l129 304 -219 3 c-211 2 -219 3 -219 22 0 19 7 20
250 20 l249 0 -43 -102 c-24 -57 -91 -216 -150 -354 l-106 -252 0 -151 c0
-144 -1 -151 -20 -151 -19 0 -20 7 -20 143 l0 142 -154 363 c-139 328 -152
362 -132 362 18 0 39 -44 161 -330z m1376 -1500 c30 -6 70 -18 89 -27 81 -37
190 -129 190 -159 0 -8 -23 -26 -52 -39 -142 -66 -310 10 -353 159 -9 31 -14
60 -10 66 8 13 67 13 136 0z m-269 -84 c-16 -80 -50 -153 -99 -213 l-43 -53
34 -52 c43 -67 59 -139 46 -210 -18 -95 -95 -200 -134 -185 -44 17 -114 173
-123 275 -6 59 -8 63 -27 58 -70 -20 -230 -18 -265 3 -30 19 55 123 134 164
27 14 66 22 120 25 l80 4 30 50 c17 28 54 72 83 99 60 55 153 109 166 98 5 -5
4 -31 -2 -63z"/>
<path d="M4200 4205 l795 -795 3 332 2 333 -462 462 -463 463 -335 0 -335 0
795 -795z"/>
<path d="M4590 4595 c223 -223 406 -405 407 -405 2 0 3 182 3 405 l0 405 -407
0 -408 0 405 -405z"/>
</g>
</svg>
